<svg id="SvgjsSvg1001" width="288" height="288" xmlns="http://www.w3.org/2000/svg" version="1.1" xmlns:xlink="http://www.w3.org/1999/xlink" xmlns:svgjs="http://svgjs.com/svgjs"><defs id="SvgjsDefs1002"></defs><g id="SvgjsG1008" transform="matrix(0.9167,0,0,0.9167,11.995200000000011,11.995199841117852)"><svg xmlns="http://www.w3.org/2000/svg" viewBox="0 0 32 32" width="288" height="288"><g data-name="Layer 2" fill="#000000" class="color000 svgShape"><rect width="2" height="2" x="23.98" y="20.08" rx="1" ry="1" fill="#000000" class="color000 svgShape"></rect><path d="M28.53,25H3.47A2.47,2.47,0,0,1,1,22.53V5.47A2.47,2.47,0,0,1,3.47,3H28.53A2.47,2.47,0,0,1,31,5.47V22.53A2.47,2.47,0,0,1,28.53,25ZM3.47,5A.47.47,0,0,0,3,5.47V22.53a.47.47,0,0,0,.47.47H28.53a.47.47,0,0,0,.47-.47V5.47A.47.47,0,0,0,28.53,5Z" fill="#000000" class="color000 svgShape"></path><rect width="28" height="2" x="2" y="17" fill="#000000" class="color000 svgShape"></rect><rect width="14" height="2" x="9" y="27" rx="1" ry="1" fill="#000000" class="color000 svgShape"></rect><rect width="2" height="4" x="11.86" y="23.67" fill="#000000" class="color000 svgShape"></rect><rect width="2" height="4" x="18.11" y="23.67" fill="#000000" class="color000 svgShape"></rect></g></svg></g></svg>